<svg id="a" xmlns="http://www.w3.org/2000/svg" viewBox="0 0 64.26 15.933">
<!-- 2 -->
<path d="M10.521,10.989v4.594H0v-1.241l3.467-3.726c2.39-2.554,3.211-4.545,3.211-6.349,0-1.781-.774-2.811-2.062-2.811-1.03,0-1.593.586-2.53,2.015l-1.147,1.779h-.375V1.172C1.735.446,3.187,0,4.757,0c3.234,0,4.967,1.687,4.967,3.937,0,2.015-1.101,4.194-4.334,7.03l-2.718,2.39h6.162l.117-.117v-2.251h1.57-.001Z" fill="#017870"/>
<!-- T -->
<path fill="currentColor" d="M15.773,14.011h1.758l.117-.117V1.99h-3.374l-1.829,3.351h-.446V.351h14.2v4.991h-.446l-1.804-3.351h-3.374v11.903l.117.117h1.758v1.57h-6.678v-1.57h.001Z"/>
<!-- O -->
<path fill="currentColor" d="M25.617,10.849c0-3.094,2.062-5.46,5.107-5.46,2.741,0,4.827,1.898,4.827,5.084s-2.133,5.341-5.109,5.341c-2.859,0-4.826-1.967-4.826-4.966ZM32.693,11.387c0-2.671-1.03-4.545-2.436-4.545-1.101,0-1.781,1.124-1.781,3.045,0,2.671,1.03,4.545,2.436,4.545,1.101,0,1.781-1.124,1.781-3.045Z"/>
<!-- 6 -->
<path d="M47.855,10.755c0,2.976-2.25,5.178-5.272,5.178-3.116,0-5.504-2.133-5.504-6.021,0-4.382,4.029-8.225,8.974-9.537l.398,1.078c-2.836,1.078-4.992,3.023-5.881,5.647.889-.446,1.733-.657,2.671-.657,2.953,0,4.615,1.969,4.615,4.311h-.001ZM44.81,11.176c0-1.687-.915-2.976-2.694-2.976-.609,0-1.289.141-1.898.329-.071.446-.092.889-.092,1.358,0,2.976.914,4.64,2.578,4.64,1.289,0,2.109-1.22,2.109-3.351h-.001Z" fill="#017870"/>
<!-- X -->
<path fill="currentColor" d="M64.26,14.011v1.57h-6.655v-1.57h1.524l.117-.117-3.397-4.663-3.493,4.663.141.117h1.524v1.57h-5.178v-1.57h1.523l.141-.141,4.498-5.787-4.334-5.976-1.993-1.406v-.351h7.427v.351l-2.109,1.406,2.882,3.937,2.858-3.937-2.109-1.406v-.351h6.069v.351l-2.109,1.406-3.866,5.084,4.897,6.678.117.141h1.524,0Z"/>
</svg>
