<?xml version="1.0" encoding="UTF-8"?>
<svg id="a" xmlns="http://www.w3.org/2000/svg" viewBox="0 0 197 205.344">
    <path fill="#f0fdfa" d="M0,65.762C0,31.747,27.574,4.172,61.59,4.172h73.82c34.015,0,61.59,27.575,61.59,61.59v73.82c0,34.015-27.575,61.59-61.59,61.59H61.59c-34.015,0-61.59-27.575-61.59-61.59v-73.82Z"/>
    
    <rect stroke="#00786f" stroke-width="3" x="0" y="4.172" width="196.536" height="196.536" rx="62" ry="62" fill="none"/>
    
    <g isolation="isolate">
        <g isolation="isolate">
        <!-- O -->
            <path fill="currentColor" d="M94.475,64.029c3.973-20.929,21.199-32.045,40.316-28.415,18.313,3.477,28.724,18.38,24.788,39.106-3.992,21.03-20.57,32.581-39.89,28.913-18.414-3.495-29.227-18.474-25.215-39.604ZM145.207,73.555c3.305-17.406-1.557-29.692-12.725-31.812-11.37-2.159-20.405,6.447-23.614,23.351-3.534,18.615,1.662,30.233,13.032,32.393,11.067,2.101,19.83-5.618,23.307-23.931Z"/>
        </g>
    </g>
    <g isolation="isolate">
        <g isolation="isolate">
        <!-- 2 -->
            <path fill="#00786f" d="M72.628,84.392v19.248H26.943v-6.377l5.682-5.103c13.798-12.406,21.683-19.132,21.683-29.451,0-5.103-2.435-8.929-6.841-8.929-3.71,0-6.493,1.855-11.479,9.624l-5.682,8.812h-1.624v-19.364c5.798-3.826,12.407-6.029,19.016-6.029,12.871,0,20.407,5.682,20.407,15.189s-5.681,16.813-19.943,25.741l-7.769,4.87h23.886l.58-.579v-7.653h7.769Z"/>
        </g>
    </g>
    <g isolation="isolate">
        <g isolation="isolate">
        <!-- T -->
            <path fill="currentColor" d="M64.859,77.631h7.682l.512-.512V25.091h-14.748l-7.988,14.646h-1.946v-21.815h62.065v21.815h-1.946l-7.886-14.646h-14.748v52.028l.512.512h7.681v6.862h-29.189v-6.862Z"/>
        </g>
    </g>
    <g isolation="isolate">
        <g isolation="isolate">
        <!-- X -->
            <path fill="currentColor" d="M166.295,169.684l.02,6.867-29.108.084-.02-6.867,6.662-.02.511-.514-14.92-20.354-15.213,20.439.616.511,6.662-.019.02,6.867-22.651.064-.02-6.867,6.662-.02.613-.616,19.606-25.372-19.036-26.082-8.729-6.124-.004-1.538,32.49-.093.004,1.538-9.206,6.176,12.655,17.183,12.455-17.255-9.242-6.123-.004-1.538,26.546-.076.004,1.538-9.207,6.176-16.848,22.29,21.505,29.148.515.614,6.662-.02Z"/>
        </g>
    </g>
    <g isolation="isolate">
        <g isolation="isolate">
        <!-- 6 -->
            <path fill="#00786f" d="M113.266,147.245c.042,14.738-11.067,25.677-26.037,25.72-15.434.044-27.3-10.481-27.355-29.744-.062-21.7,19.844-40.788,44.31-47.356l1.988,5.332c-14.026,5.378-24.674,15.04-29.047,28.049,4.403-2.217,8.578-3.273,13.22-3.286,14.621-.042,22.889,9.683,22.922,21.286ZM98.186,149.376c-.023-8.354-4.567-14.725-13.387-14.699-3.018.009-6.381.715-9.396,1.652-.342,2.205-.451,4.41-.444,6.731.042,14.737,4.591,22.964,12.83,22.939,6.383-.018,10.427-6.063,10.396-16.624Z"/>
        </g>
    </g>
</svg>
